<mxfile host="app.diagrams.net" modified="2023-07-09T19:21:31.915Z" agent="Mozilla/5.0 (Windows NT 10.0; Win64; x64; rv:109.0) Gecko/20100101 Firefox/115.0" version="21.6.1" etag="zjKlxtMe6L_ylbHWCgeK" type="github">
  <diagram name="Page-1" id="2-9pPBVl-RafvU5p_nI2">
    <mxGraphModel>
      <root>
        <mxCell id="0" />
        <mxCell id="1" parent="0" />
      </root>
    </mxGraphModel>
  </diagram>
</mxfile>
